<?xml version="1.0" encoding="utf-8"?>
<!-- Generator: Adobe Illustrator 24.0.0, SVG Export Plug-In . SVG Version: 6.00 Build 0)  -->
<svg version="1.1" xmlns="http://www.w3.org/2000/svg" xmlns:xlink="http://www.w3.org/1999/xlink" x="0px" y="0px" width="432px"
	 height="288px" viewBox="0 0 432 288" style="enable-background:new 0 0 432 288;" xml:space="preserve">
<style type="text/css">
	.st0{clip-path:url(#SVGID_2_);fill:#7098E8;}
	.st1{clip-path:url(#SVGID_2_);fill:#4F72AA;}
	.st2{clip-path:url(#SVGID_2_);}
	.st3{fill:#FFFFFF;stroke:#000000;stroke-miterlimit:10;}
	.st4{fill:none;stroke:#000000;stroke-miterlimit:10;}
	.st5{fill:none;stroke:#FF0000;stroke-miterlimit:10;}
	.st6{fill:#FFFFFF;}
</style>
<g id="Layer_1">
	<g>
		<defs>
			<rect id="SVGID_1_" x="-0.5" y="0.5" width="432.5" height="287"/>
		</defs>
		<clipPath id="SVGID_2_">
			<use xlink:href="#SVGID_1_"  style="overflow:visible;"/>
		</clipPath>
		<rect x="-2" y="-6" class="st0" width="442.5" height="293.5"/>
		<rect x="-14" y="163" class="st1" width="468.5" height="180"/>
		<g class="st2">
			<g>
				<rect x="16.5" y="34" class="st3" width="163.2" height="235.5"/>
				<g>
					<line class="st4" x1="32.8" y1="65.1" x2="138.3" y2="65.1"/>
					<line class="st4" x1="33.4" y1="74.1" x2="120.8" y2="74.1"/>
					<line class="st4" x1="33.4" y1="83.2" x2="143" y2="83.2"/>
					<line class="st4" x1="33.4" y1="92.2" x2="98.7" y2="92.2"/>
					<line class="st4" x1="33.4" y1="101.3" x2="110.3" y2="101.3"/>
					<line class="st4" x1="33.1" y1="122" x2="138.6" y2="122"/>
					<line class="st4" x1="33.7" y1="131.1" x2="121.1" y2="131.1"/>
					<line class="st4" x1="33.7" y1="140.1" x2="143.2" y2="140.1"/>
					<line class="st4" x1="33.7" y1="149.2" x2="98.9" y2="149.2"/>
					<line class="st4" x1="33.7" y1="158.2" x2="110.6" y2="158.2"/>
				</g>
			</g>
			<g>
				<rect x="157.4" y="93.5" class="st3" width="122" height="176"/>
				<g>
					<line class="st4" x1="169.6" y1="116.7" x2="248.4" y2="116.7"/>
					<line class="st4" x1="170" y1="123.5" x2="235.3" y2="123.5"/>
					<line class="st4" x1="170" y1="130.3" x2="251.9" y2="130.3"/>
					<line class="st4" x1="170" y1="137" x2="218.8" y2="137"/>
					<line class="st4" x1="170" y1="143.8" x2="227.5" y2="143.8"/>
					<line class="st4" x1="169.7" y1="159.3" x2="248.6" y2="159.3"/>
					<line class="st4" x1="170.2" y1="166.1" x2="235.5" y2="166.1"/>
					<line class="st4" x1="170.2" y1="172.8" x2="252.1" y2="172.8"/>
					<line class="st4" x1="170.2" y1="179.6" x2="219" y2="179.6"/>
					<line class="st4" x1="170.2" y1="186.4" x2="227.7" y2="186.4"/>
				</g>
			</g>
		</g>
		<g class="st2">
			<rect x="233.8" y="207.5" class="st3" width="79.1" height="62"/>
			<g>
				<polyline class="st4" points="296.4,258.5 249.1,258.5 248.8,258.5 248.8,227 				"/>
				<polyline class="st4" points="296.2,236.4 282.2,253.3 264.2,236.5 263.5,235.9 252.7,245.7 				"/>
				<polyline class="st5" points="296.5,227.6 282.5,244.5 264.5,227.7 263.8,227.1 253,236.9 				"/>
			</g>
		</g>
	</g>
</g>
<g id="Layer_2">
	<path class="st6" d="M249,141"/>
</g>
</svg>
